<svg xmlns="http://www.w3.org/2000/svg" style="display:none">
  <symbol id="icon-orchestrator" viewBox="0 0 24 24" fill="none" stroke="currentColor" stroke-width="1.8" stroke-linecap="round" stroke-linejoin="round">
    <circle cx="12" cy="12" r="3"/><path d="M12 2v4M12 18v4M4.2 4.2l2.8 2.8M17 17l2.8 2.8M2 12h4M18 12h4M4.2 19.8l2.8-2.8M17 7l2.8-2.8"/>
  </symbol>
  <symbol id="icon-researcher" viewBox="0 0 24 24" fill="none" stroke="currentColor" stroke-width="1.8" stroke-linecap="round" stroke-linejoin="round">
    <circle cx="10.5" cy="10.5" r="6.5"/><path d="M21 21l-5.2-5.2"/>
  </symbol>
  <symbol id="icon-writer" viewBox="0 0 24 24" fill="none" stroke="currentColor" stroke-width="1.8" stroke-linecap="round" stroke-linejoin="round">
    <path d="M3 21l3.5-1 11-11a2 2 0 0 0-3-3L3.5 17.5z"/><path d="M14 6l3 3"/>
  </symbol>
  <symbol id="icon-auditor" viewBox="0 0 24 24" fill="none" stroke="currentColor" stroke-width="1.8" stroke-linecap="round" stroke-linejoin="round">
    <path d="M12 2 4 5v6c0 5 3.5 8.5 8 11 4.5-2.5 8-6 8-11V5z"/><path d="M9 12l2 2 4-4"/>
  </symbol>
  <symbol id="icon-designer" viewBox="0 0 24 24" fill="none" stroke="currentColor" stroke-width="1.8" stroke-linecap="round" stroke-linejoin="round">
    <path d="M12 2a10 10 0 1 0 0 20 3 3 0 0 0 0-6h-1a2 2 0 0 1 0-4h2a4 4 0 0 0 0-8z"/>
    <circle cx="7.5" cy="10.5" r="1"/><circle cx="9.5" cy="6.5" r="1"/><circle cx="14.5" cy="6" r="1"/>
  </symbol>
  <symbol id="icon-validator" viewBox="0 0 24 24" fill="none" stroke="currentColor" stroke-width="1.8" stroke-linecap="round" stroke-linejoin="round">
    <circle cx="12" cy="12" r="9"/><path d="M8 12.5l2.5 2.5L16 9"/>
  </symbol>
  <symbol id="icon-analyst" viewBox="0 0 24 24" fill="none" stroke="currentColor" stroke-width="1.8" stroke-linecap="round" stroke-linejoin="round">
    <path d="M4 20V10M10 20V4M16 20v-7M22 20H2"/>
  </symbol>
  <symbol id="icon-strategist" viewBox="0 0 24 24" fill="none" stroke="currentColor" stroke-width="1.8" stroke-linecap="round" stroke-linejoin="round">
    <circle cx="12" cy="12" r="9"/><circle cx="12" cy="12" r="4.5"/><circle cx="12" cy="12" r="0.8" fill="currentColor"/>
  </symbol>
  <symbol id="icon-reviewer" viewBox="0 0 24 24" fill="none" stroke="currentColor" stroke-width="1.8" stroke-linecap="round" stroke-linejoin="round">
    <path d="M2 12s3.5-7 10-7 10 7 10 7-3.5 7-10 7-10-7-10-7z"/><circle cx="12" cy="12" r="3"/>
  </symbol>
  <symbol id="icon-communicator" viewBox="0 0 24 24" fill="none" stroke="currentColor" stroke-width="1.8" stroke-linecap="round" stroke-linejoin="round">
    <path d="M21 15a2 2 0 0 1-2 2H7l-4 4V5a2 2 0 0 1 2-2h14a2 2 0 0 1 2 2z"/>
  </symbol>
  <symbol id="icon-scientist" viewBox="0 0 24 24" fill="none" stroke="currentColor" stroke-width="1.8" stroke-linecap="round" stroke-linejoin="round">
    <path d="M9 2v6.5L4.5 17a3 3 0 0 0 2.6 4.5h9.8a3 3 0 0 0 2.6-4.5L15 8.5V2"/><path d="M9 2h6"/><path d="M8 15h8"/>
  </symbol>
  <symbol id="icon-generic" viewBox="0 0 24 24" fill="none" stroke="currentColor" stroke-width="1.8" stroke-linecap="round" stroke-linejoin="round">
    <circle cx="12" cy="8" r="4"/><path d="M4 20c0-4.4 3.6-7 8-7s8 2.6 8 7"/>
  </symbol>
  <symbol id="icon-architect" viewBox="0 0 24 24" fill="none" stroke="currentColor" stroke-width="1.8" stroke-linecap="round" stroke-linejoin="round">
    <path d="M3 17 12 3l9 14"/><path d="M7 17v-5h10v5"/><path d="M3 21h18"/>
  </symbol>
  <symbol id="icon-builder" viewBox="0 0 24 24" fill="none" stroke="currentColor" stroke-width="1.8" stroke-linecap="round" stroke-linejoin="round">
    <path d="M14.5 6.5 17 4l3 3-2.5 2.5"/><path d="M14.5 6.5 4 17v3h3L17.5 9.5"/>
  </symbol>
  <symbol id="icon-guardian" viewBox="0 0 24 24" fill="none" stroke="currentColor" stroke-width="1.8" stroke-linecap="round" stroke-linejoin="round">
    <path d="M12 2 4 5v6c0 5 3.5 8.5 8 11 4.5-2.5 8-6 8-11V5z"/>
  </symbol>
  <symbol id="icon-router" viewBox="0 0 24 24" fill="none" stroke="currentColor" stroke-width="1.8" stroke-linecap="round" stroke-linejoin="round">
    <circle cx="5" cy="12" r="2.2"/><circle cx="19" cy="6" r="2.2"/><circle cx="19" cy="18" r="2.2"/>
    <path d="M7 12h2l8-6M7 12h2l8 6"/>
  </symbol>
  <symbol id="icon-planner" viewBox="0 0 24 24" fill="none" stroke="currentColor" stroke-width="1.8" stroke-linecap="round" stroke-linejoin="round">
    <rect x="4" y="3" width="16" height="18" rx="2"/><path d="M8 8h8M8 12h8M8 16h5"/>
  </symbol>
  <symbol id="icon-composer" viewBox="0 0 24 24" fill="none" stroke="currentColor" stroke-width="1.8" stroke-linecap="round" stroke-linejoin="round">
    <path d="M12 2 3 7l9 5 9-5z"/><path d="M3 12l9 5 9-5"/><path d="M3 17l9 5 9-5"/>
  </symbol>
  <symbol id="icon-factory" viewBox="0 0 24 24" fill="none" stroke="currentColor" stroke-width="1.8" stroke-linecap="round" stroke-linejoin="round">
    <path d="M3 21V10l5 4v-4l5 4v-4l5 4v7z"/><path d="M3 21h18"/>
  </symbol>
  <symbol id="icon-failsafe" viewBox="0 0 24 24" fill="none" stroke="currentColor" stroke-width="1.8" stroke-linecap="round" stroke-linejoin="round">
    <path d="M12 2v9"/><path d="M7 5.2a8 8 0 1 0 10 0"/>
  </symbol>

  <symbol id="icon-script" viewBox="0 0 24 24" fill="none" stroke="currentColor" stroke-width="1.8" stroke-linecap="round" stroke-linejoin="round">
    <path d="M9 4H6a2 2 0 0 0-2 2v12a2 2 0 0 0 2 2h12a2 2 0 0 0 2-2v-3"/><path d="M14 4h6v6"/><path d="M20 4 11 13"/>
  </symbol>
  <symbol id="icon-workflow" viewBox="0 0 24 24" fill="none" stroke="currentColor" stroke-width="1.8" stroke-linecap="round" stroke-linejoin="round">
    <rect x="2" y="3" width="6" height="6" rx="1"/><rect x="16" y="3" width="6" height="6" rx="1"/><rect x="9" y="15" width="6" height="6" rx="1"/>
    <path d="M5 9v3a3 3 0 0 0 3 3h1M19 9v3a3 3 0 0 1-3 3h-1"/>
  </symbol>
  <symbol id="icon-input" viewBox="0 0 24 24" fill="none" stroke="currentColor" stroke-width="1.8" stroke-linecap="round" stroke-linejoin="round">
    <path d="M12 3v12"/><path d="M7 10l5 5 5-5"/><path d="M4 19h16"/>
  </symbol>
  <symbol id="icon-output" viewBox="0 0 24 24" fill="none" stroke="currentColor" stroke-width="1.8" stroke-linecap="round" stroke-linejoin="round">
    <path d="M14 2H6a2 2 0 0 0-2 2v16a2 2 0 0 0 2 2h12a2 2 0 0 0 2-2V8z"/><path d="M14 2v6h6"/><path d="M9 13h6M9 17h6"/>
  </symbol>
</svg>
